<?xml version="1.0" encoding="UTF-8"?>
<svg version="1.1" xmlns="http://www.w3.org/2000/svg" width="666" height="375">
<path d="M0 0 C0.04993675 4.51658714 0.08597002 9.03302226 0.10986328 13.54980469 C0.11983806 15.08205978 0.13342276 16.61429625 0.15087891 18.14648438 C0.32267086 33.62797117 -0.85522376 45.60218126 -11.4375 57.8125 C-12.283125 58.534375 -13.12875 59.25625 -14 60 C-14.50273437 60.515625 -15.00546875 61.03125 -15.5234375 61.5625 C-20.96914368 66.88930429 -27.29467146 69.88238939 -34.09765625 73.10546875 C-36.69616312 74.33689871 -39.19411973 75.65703135 -41.67578125 77.109375 C-44.47921312 78.70380628 -47.11315876 79.94395446 -50.125 81.0625 C-53.69390072 82.39086081 -56.75241936 84.01481732 -60 86 C-65.18454528 88.71235067 -70.40107185 91.39171219 -75.8125 93.625 C-78.79323788 94.9108085 -81.46447962 96.39114169 -84.25390625 98.03125 C-87.06405208 99.59034657 -90.04051857 100.75390255 -93 102 C-95.01449121 102.9899125 -97.01364804 104.00497585 -99.0078125 105.03515625 C-101 106 -101 106 -103.4296875 106.9140625 C-111.75034193 110.42947577 -119.86112199 116.9193334 -124 125 C-125.68091665 129.29567587 -126.45117168 133.42643067 -127 138 C-126.10752563 137.4416748 -126.10752563 137.4416748 -125.19702148 136.87207031 C-118.99002461 133.05924387 -112.6669219 129.81158121 -106.0625 126.75 C-98.50105743 123.19769793 -91.04894332 119.51274141 -83.6875 115.5625 C-78.28218499 112.66659721 -72.95463148 109.99263764 -67.1953125 107.85546875 C-61.63092254 105.68713885 -56.342476 102.81399035 -51.1875 99.8125 C-48.46485692 98.2643304 -45.89725005 97.15012048 -43 96 C-41.51190638 95.28922899 -40.03290795 94.55917163 -38.5625 93.8125 C-37.68980469 93.37164062 -36.81710938 92.93078125 -35.91796875 92.4765625 C-34.95503906 91.98929687 -33.99210937 91.50203125 -33 91 C-29.60706728 89.30146225 -26.21240179 87.60646862 -22.81640625 85.9140625 C-20.08650312 84.55018655 -17.36760704 83.16621916 -14.65234375 81.7734375 C-13.92934082 81.40516846 -13.20633789 81.03689941 -12.46142578 80.6574707 C-11.05237117 79.93949639 -9.64569384 79.2168331 -8.24169922 78.48901367 C-3.33769459 76 -3.33769459 76 0 76 C0.04986353 80.53489627 0.08593637 85.0696289 0.10986328 89.60473633 C0.11985006 91.14382715 0.13344419 92.68289935 0.15087891 94.22192383 C0.32549079 110.0448421 -1.51801526 124.21272409 -13.0625 136.12890625 C-18.41578283 141 -18.41578283 141 -22 141 C-22.33 141.99 -22.66 142.98 -23 144 C-24.98 144.33 -26.96 144.66 -29 145 C-29 145.66 -29 146.32 -29 147 C-30.98 147.33 -32.96 147.66 -35 148 C-35 148.66 -35 149.32 -35 150 C-37.51956743 151.27339482 -40.04058649 152.54376642 -42.5625 153.8125 C-43.26697266 154.16892578 -43.97144531 154.52535156 -44.69726562 154.89257812 C-49.07531332 157.09168964 -53.48831746 159.09142157 -58 161 C-59.34090759 161.65129797 -60.67592331 162.31513275 -62 163 C-65.60354108 164.82949008 -69.28495595 166.40783826 -73 168 C-75.67741086 169.31521937 -78.33987165 170.6507829 -81 172 C-83.37446224 173.18859106 -85.74943517 174.37611809 -88.125 175.5625 C-89.86136719 176.43068359 -89.86136719 176.43068359 -91.6328125 177.31640625 C-92.74398437 177.87199219 -93.85515625 178.42757812 -95 179 C-96.01578125 179.515625 -97.0315625 180.03125 -98.078125 180.5625 C-101.797454 182.39233031 -105.59910629 184.00214174 -109.4140625 185.62109375 C-112.16911415 187.09017718 -113.87058736 188.74030684 -116 191 C-117.485 191.99 -117.485 191.99 -119 193 C-124.01901987 200.99906292 -126.56895168 208.68976798 -128 218 C-130.46800047 216.84826645 -132.04783565 215.95216435 -134 214 C-134 213.01 -134 212.02 -134 211 C-134.58523437 210.78859375 -135.17046875 210.5771875 -135.7734375 210.359375 C-138.80815149 208.50660225 -139.88513875 206.33116398 -141.625 203.25 C-142.51058594 201.71085937 -142.51058594 201.71085937 -143.4140625 200.140625 C-150.11977071 186.86134077 -148.66209416 172.94631715 -145 159 C-144.505 158.01 -144.505 158.01 -144 157 C-143.34 157 -142.68 157 -142 157 C-141.34 154.69 -140.68 152.38 -140 150 C-139.34 150 -138.68 150 -138 150 C-137.938125 149.4225 -137.87625 148.845 -137.8125 148.25 C-136.67972699 145.11309013 -134.65802405 143.90832496 -132 142 C-133.46256659 138.84431445 -135.25580639 136.1750219 -137.3125 133.375 C-146.37653811 120.49651252 -149.77604965 107.88919048 -147.4375 92.1875 C-144.10903242 77.41004819 -135.4897724 66.96620866 -123 59 C-119.3605623 57.02936165 -115.63811422 55.28292665 -111.875 53.5625 C-109.84833393 52.61722299 -107.82229477 51.67060075 -105.796875 50.72265625 C-104.81267578 50.26391113 -103.82847656 49.80516602 -102.81445312 49.33251953 C-98.87637636 47.46801372 -95.0016035 45.48820702 -91.125 43.5 C-85.86354033 40.82017206 -80.68458825 38.62416807 -75 37 C-75 36.34 -75 35.68 -75 35 C-73.78763672 34.51080078 -73.78763672 34.51080078 -72.55078125 34.01171875 C-71.48214844 33.57472656 -70.41351563 33.13773438 -69.3125 32.6875 C-68.25675781 32.25824219 -67.20101562 31.82898438 -66.11328125 31.38671875 C-63.06233784 30.10411609 -63.06233784 30.10411609 -60.61303711 28.56225586 C-58.14678111 27.08775599 -55.67937841 25.8339028 -53.078125 24.6171875 C-52.14355469 24.17665039 -51.20898438 23.73611328 -50.24609375 23.28222656 C-49.25738281 22.8178418 -48.26867187 22.35345703 -47.25 21.875 C-40.08098465 18.48211695 -32.98103331 15.01528275 -26 11.25 C-20.60147786 8.34494535 -15.16892169 5.55606107 -9.625 2.9375 C-8.99980469 2.63811523 -8.37460938 2.33873047 -7.73046875 2.03027344 C-4.94830255 0.73678303 -3.11042562 0 0 0 Z " fill="#9CF0C0" transform="translate(166,66)"/>
<path d="M0 0 C0 22.11 0 44.22 0 67 C-7.87440011 64.7501714 -7.87440011 64.7501714 -11.3125 62.8984375 C-12.07087158 62.49439697 -12.82924316 62.09035645 -13.6105957 61.67407227 C-14.79335083 61.03103149 -14.79335083 61.03103149 -16 60.375 C-16.82653076 59.932771 -17.65306152 59.49054199 -18.50463867 59.03491211 C-20.19260763 58.13110109 -21.87906222 57.22445595 -23.56396484 56.31494141 C-26.50174767 54.72916286 -29.44644029 53.15661233 -32.39257812 51.58642578 C-34.19680061 50.62420438 -35.9988667 49.65794272 -37.80078125 48.69140625 C-39.90277804 47.58009415 -42.01860628 46.4944882 -44.1484375 45.4375 C-46.61417694 44.1944971 -48.96659437 42.89059494 -51.3125 41.4375 C-52.32763672 40.81681641 -52.32763672 40.81681641 -53.36328125 40.18359375 C-55 39 -55 39 -56 37 C-56.69241508 29.96044672 -56.69241508 29.96044672 -54.0625 26.3125 C-48.75689968 22.30623037 -43.16804498 19.4347546 -37 17 C-34.5071427 15.56978676 -34.5071427 15.56978676 -32.0390625 14.09765625 C-29.72617158 12.85259428 -27.33202122 11.86843701 -24.91308594 10.84985352 C-21.62077981 9.3873066 -18.47557911 7.65788309 -15.3125 5.9375 C-12.87667927 4.62181883 -10.43896302 3.30986497 -8 2 C-7.27167969 1.58878906 -6.54335937 1.17757812 -5.79296875 0.75390625 C-4 0 -4 0 0 0 Z " fill="#9CEFC0" transform="translate(166,217)"/>
<path d="M0 0 C0.495 1.485 0.495 1.485 1 3 C2.32796291 3.35412344 3.66216607 3.68521554 5 4 C7.74658764 6.19727011 9.25336225 8.98308026 11 12 C11.495 12.495 11.495 12.495 12 13 C12.04080783 14.99958364 12.04254356 17.00045254 12 19 C9.26916098 19.13548815 6.54508193 19.23429855 3.8125 19.3125 C3.04357422 19.35439453 2.27464844 19.39628906 1.48242188 19.43945312 C-2.82988238 19.53199184 -4.43264902 19.47446951 -7.86328125 16.60546875 C-8.56839844 15.74566406 -9.27351563 14.88585937 -10 14 C-13.5086396 11.66090693 -14.87089433 11.58708943 -19 12 C-21.71126384 13.42621684 -21.71126384 13.42621684 -24 15 C-24.66 15 -25.32 15 -26 15 C-26.309375 15.94875 -26.61875 16.8975 -26.9375 17.875 C-28 21 -28 21 -29 23 C-29.73293635 28.79139866 -28.89899963 33.19839358 -26.265625 38.37109375 C-24.67609139 40.41688238 -23.43191185 41.11646368 -21 42 C-18.54525777 42.27751792 -18.54525777 42.27751792 -16 42.1875 C-15.154375 42.18105469 -14.30875 42.17460937 -13.4375 42.16796875 C-11.16747523 42.01154076 -9.18038396 41.63089814 -7 41 C-6.855625 40.360625 -6.71125 39.72125 -6.5625 39.0625 C-6 37 -6 37 -5 36 C-2.13732433 35.92674832 0.700719 35.90761795 3.5625 35.9375 C4.36880859 35.94201172 5.17511719 35.94652344 6.00585938 35.95117188 C8.00393756 35.96299482 10.00197783 35.98093086 12 36 C13 38 13 38 12.4375 40.125 C8.75077607 47.49844785 3.75510471 53.74895174 -4 57 C-14.75548038 59.01272148 -25.75964712 59.22719433 -35 53 C-35 52.34 -35 51.68 -35 51 C-35.59425781 50.77183594 -36.18851562 50.54367188 -36.80078125 50.30859375 C-39.60364073 48.64081768 -40.57791372 46.88031043 -42.1875 44.0625 C-42.69667969 43.18722656 -43.20585937 42.31195313 -43.73046875 41.41015625 C-47.47957806 34.29261643 -47.31358728 23.583215 -45.10546875 15.87890625 C-44 13.4375 -44 13.4375 -42 10 C-41.34 10 -40.68 10 -40 10 C-39.95875 9.4225 -39.9175 8.845 -39.875 8.25 C-38.56017459 4.86902037 -36.01965292 3.87218481 -33 2 C-32.525625 1.46375 -32.05125 0.9275 -31.5625 0.375 C-24.37815631 -5.94722245 -7.76331428 -4.68110514 0 0 Z " fill="#E9E9E9" transform="translate(379,147)"/>
<path d="M0 0 C0 0.66 0 1.32 0 2 C0.66 2 1.32 2 2 2 C2.67934107 3.22220737 3.34291523 4.45318451 4 5.6875 C4.37125 6.37199219 4.7425 7.05648437 5.125 7.76171875 C6 10 6 10 6 15 C0.06 15 -5.88 15 -12 15 C-12 13.35 -12 11.7 -12 10 C-14.97 10 -17.94 10 -21 10 C-21.33425735 12.37374861 -21.33425735 12.37374861 -21 15 C-17.18964565 18.73199231 -11.88357751 19.94929354 -6.93164062 21.57421875 C-2.19575953 23.23421831 0.66436793 25.09748949 4 29 C4.5878125 29.66515625 5.175625 30.3303125 5.78125 31.015625 C8.08926237 34.77354257 7.67566393 38.76116494 7 43 C5.75493963 46.07008475 4.10361369 48.45530602 2 51 C1.21625 51.969375 0.4325 52.93875 -0.375 53.9375 C-5.43728599 57.84269205 -12.93617752 56.98718008 -19 57 C-20.33417969 57.03480469 -20.33417969 57.03480469 -21.6953125 57.0703125 C-27.34190032 56.8932418 -30.33275029 54.62344922 -34.37109375 50.7890625 C-38.47739986 46.27901886 -38.48959141 42.86969873 -39 37 C-33.39 37 -27.78 37 -22 37 C-21.34 38.65 -20.68 40.3 -20 42 C-17.03 42.33 -14.06 42.66 -11 43 C-10.91773332 39.95613276 -11.02391783 37.92824652 -12 35 C-12.825 34.896875 -13.65 34.79375 -14.5 34.6875 C-18.56970884 33.88809291 -22.16732287 32.54938011 -26 31 C-26.63550781 30.76152344 -27.27101562 30.52304688 -27.92578125 30.27734375 C-31.75279933 28.77767714 -34.39982194 27.20021915 -37 24 C-39.00800981 17.97597057 -39.520154 9.5002808 -36.94140625 3.5625 C-28.38846446 -7.19241868 -10.90893497 -6.62222611 0 0 Z " fill="#E9E9E9" transform="translate(273,148)"/>
<path d="M0 0 C0.75087891 -0.01160156 1.50175781 -0.02320313 2.27539062 -0.03515625 C6.87767833 -0.01086977 9.76042728 0.51777637 13.5625 3.375 C13.5625 2.385 13.5625 1.395 13.5625 0.375 C18.8425 0.375 24.1225 0.375 29.5625 0.375 C29.5625 15.885 29.5625 31.395 29.5625 47.375 C24.2825 47.375 19.0025 47.375 13.5625 47.375 C13.2325 46.385 12.9025 45.395 12.5625 44.375 C12.19125 44.849375 11.82 45.32375 11.4375 45.8125 C7.24374636 49.3072947 0.79277311 48.7773287 -4.4375 48.375 C-6.99067991 47.9429234 -8.99238887 47.32310431 -11.4375 46.375 C-11.9325 44.89 -11.9325 44.89 -12.4375 43.375 C-13.365625 42.941875 -13.365625 42.941875 -14.3125 42.5 C-17.19486279 40.97404323 -18.01973495 39.27804272 -19.4375 36.375 C-21.7197215 27.46646641 -21.8339279 16.56145196 -17.4375 8.375 C-15 5.5625 -15 5.5625 -12.4375 3.375 C-11.89867187 2.84261719 -11.35984375 2.31023437 -10.8046875 1.76171875 C-7.32423887 -0.27715792 -3.91692864 -0.06020898 0 0 Z M-3.4375 16.375 C-5.54424089 20.58848178 -5.09063441 25.80927946 -4.4375 30.375 C-1.45174111 33.50293788 0.43078918 34.16713475 4.625 34.9375 C8.57243245 34.18160868 10.03055117 32.4133386 12.5625 29.375 C14.09464888 26.31070224 13.79188548 23.7584358 13.5625 20.375 C12.16017912 17.0537137 11.26284741 15.74268239 8.0625 14.0625 C3.28682682 12.74918987 0.76465989 13.99986615 -3.4375 16.375 Z " fill="#F1F1F1" transform="translate(592.4375,156.625)"/>
<path d="M0 0 C0.89009766 -0.020625 1.78019531 -0.04125 2.69726562 -0.0625 C7.93913405 -0.09358595 11.72964766 0.18438983 16.1875 3.25 C18.26953125 5.5546875 18.26953125 5.5546875 20 8.125 C20.58394531 8.96804687 21.16789062 9.81109375 21.76953125 10.6796875 C23.9968597 14.71710381 24.32777293 18.44866755 24.3125 23 C24.31636719 24.16789062 24.31636719 24.16789062 24.3203125 25.359375 C24.1875 27.25 24.1875 27.25 23.1875 28.25 C20.89598583 28.33790975 18.60177476 28.35694038 16.30859375 28.34765625 C15.27860008 28.34553383 15.27860008 28.34553383 14.22779846 28.34336853 C12.02682199 28.33775479 9.82594591 28.32520007 7.625 28.3125 C6.13606917 28.30748676 4.64713676 28.30292355 3.15820312 28.29882812 C-0.49873075 28.28778093 -4.15560558 28.27050713 -7.8125 28.25 C-5.98848715 32.02044558 -5.98848715 32.02044558 -2.55078125 33.95703125 C-1.75027344 33.99183594 -0.94976562 34.02664062 -0.125 34.0625 C0.68324219 34.11019531 1.49148438 34.15789062 2.32421875 34.20703125 C2.93910156 34.22121094 3.55398438 34.23539063 4.1875 34.25 C4.5175 33.26 4.8475 32.27 5.1875 31.25 C11.1275 31.25 17.0675 31.25 23.1875 31.25 C22.18225275 36.27623623 21.60944781 37.38090246 18.3125 40.9375 C17.61382812 41.70449219 16.91515625 42.47148437 16.1953125 43.26171875 C11.40950059 48.00097607 6.76812203 48.28875295 0.3125 48.4375 C-5.82833929 48.36351398 -12.24894359 47.81355641 -16.8125 43.25 C-16.8125 42.59 -16.8125 41.93 -16.8125 41.25 C-17.7096875 40.9715625 -17.7096875 40.9715625 -18.625 40.6875 C-21.77983104 38.61432532 -22.72780005 35.73747857 -23.8125 32.25 C-24.11885722 29.51762475 -24.2915825 27.09325156 -24.25 24.375 C-24.24170166 23.67391113 -24.23340332 22.97282227 -24.22485352 22.25048828 C-24.00460457 15.47685355 -22.76062694 10.39913559 -18.09375 5.4140625 C-12.3055154 0.18993551 -7.54310151 0.04313425 0 0 Z M-7.8125 15.25 C-7.8125 16.24 -7.8125 17.23 -7.8125 18.25 C-2.8625 18.25 2.0875 18.25 7.1875 18.25 C7.53432084 15.21970876 7.53432084 15.21970876 5.5625 13.5625 C0.6438982 10.84432532 -3.5262511 11.84621411 -7.8125 15.25 Z " fill="#EDEDED" transform="translate(419.8125,156.75)"/>
<path d="M0 0 C4.95 0 9.9 0 15 0 C15 0.99 15 1.98 15 3 C15.65097656 2.5153125 16.30195313 2.030625 16.97265625 1.53125 C20.91822798 -0.46444563 24.08000857 -0.51514332 28.4375 -0.5 C29.17548828 -0.52835938 29.91347656 -0.55671875 30.67382812 -0.5859375 C34.75723919 -0.60045629 37.29471986 -0.18077289 40.53515625 2.40625 C43 5 43 5 43 7 C43.66 7 44.32 7 45 7 C46.87610909 11.74545239 47.26832617 15.98207543 47.1953125 21.0234375 C47.1924826 21.76961334 47.18965271 22.51578918 47.18673706 23.28457642 C47.17561687 25.64821988 47.15052821 28.01147268 47.125 30.375 C47.11495962 31.98567158 47.10583562 33.59634915 47.09765625 35.20703125 C47.0774129 39.13828937 47.03825037 43.06871171 47 47 C42.05 47 37.1 47 32 47 C31.96261719 45.19273437 31.92523438 43.38546875 31.88671875 41.5234375 C31.82105013 39.14060456 31.7546031 36.75779298 31.6875 34.375 C31.66494141 33.18519531 31.64238281 31.99539062 31.61914062 30.76953125 C31.47112111 22.38781583 31.47112111 22.38781583 28 15 C25.20129973 13.60064987 23.09501208 13.74734595 20 14 C17.96332385 15.54506466 17.13926922 16.72146156 16 19 C15.84558791 21.10374996 15.75007361 23.21195119 15.68359375 25.3203125 C15.64169922 26.57714844 15.59980469 27.83398438 15.55664062 29.12890625 C15.51732422 30.44761719 15.47800781 31.76632813 15.4375 33.125 C15.39430488 34.46485751 15.35069027 35.80470156 15.30664062 37.14453125 C15.2002909 40.4295562 15.09961683 43.71476398 15 47 C10.05 47 5.1 47 0 47 C0 31.49 0 15.98 0 0 Z " fill="#F5F5F5" transform="translate(450,157)"/>
<path d="M0 0 C1.34644592 -0.00472824 1.34644592 -0.00472824 2.72009277 -0.009552 C4.18412537 -0.00651566 4.18412537 -0.00651566 5.67773438 -0.00341797 C6.67276978 -0.00437469 7.66780518 -0.00533142 8.69299316 -0.00631714 C10.80135155 -0.00699907 12.90971203 -0.0051439 15.01806641 -0.00097656 C18.25753465 0.0043715 21.49686423 -0.00092114 24.73632812 -0.00732422 C26.77929718 -0.00666344 28.82226615 -0.00538228 30.86523438 -0.00341797 C31.8412561 -0.0054422 32.81727783 -0.00746643 33.82287598 -0.009552 C34.72050659 -0.00639984 35.61813721 -0.00324768 36.54296875 0 C37.73424377 0.00119339 37.73424377 0.00119339 38.94958496 0.00241089 C40.77148438 0.12939453 40.77148438 0.12939453 41.77148438 1.12939453 C41.91541894 5.46470371 41.81360498 9.79097185 41.77148438 14.12939453 C36.49148438 14.12939453 31.21148437 14.12939453 25.77148438 14.12939453 C25.77148438 29.30939453 25.77148438 44.48939453 25.77148438 60.12939453 C20.82148438 60.12939453 15.87148438 60.12939453 10.77148438 60.12939453 C10.77148438 44.94939453 10.77148438 29.76939453 10.77148438 14.12939453 C5.49148438 14.12939453 0.21148437 14.12939453 -5.22851562 14.12939453 C-5.32617188 4.07080078 -5.32617188 4.07080078 -5.22851562 1.12939453 C-3.6694478 -0.42967329 -2.16697281 0.00217082 0 0 Z " fill="#F0F0F0" transform="translate(288.228515625,143.87060546875)"/>
<path d="M0 0 C1.39456452 0.00667256 2.78911118 0.01863093 4.18359375 0.03515625 C4.89451172 0.03966797 5.60542969 0.04417969 6.33789062 0.04882812 C8.09899388 0.06064761 9.86005411 0.07858362 11.62109375 0.09765625 C11.62109375 4.05765625 11.62109375 8.01765625 11.62109375 12.09765625 C14.92109375 12.09765625 18.22109375 12.09765625 21.62109375 12.09765625 C21.62109375 16.38765625 21.62109375 20.67765625 21.62109375 25.09765625 C18.32109375 25.09765625 15.02109375 25.09765625 11.62109375 25.09765625 C11.62109375 31.69765625 11.62109375 38.29765625 11.62109375 45.09765625 C14.92109375 45.42765625 18.22109375 45.75765625 21.62109375 46.09765625 C21.62109375 50.38765625 21.62109375 54.67765625 21.62109375 59.09765625 C18.91166982 59.20627458 16.20665475 59.28524202 13.49609375 59.34765625 C12.73554687 59.38117188 11.975 59.4146875 11.19140625 59.44921875 C5.85778096 59.54117781 2.79237546 58.73481042 -1.37890625 55.09765625 C-6.68687829 47.08562299 -4.63910535 34.26467064 -4.37890625 25.09765625 C-6.02890625 25.09765625 -7.67890625 25.09765625 -9.37890625 25.09765625 C-9.37890625 20.80765625 -9.37890625 16.51765625 -9.37890625 12.09765625 C-7.72890625 12.09765625 -6.07890625 12.09765625 -4.37890625 12.09765625 C-4.39050781 11.31519531 -4.40210938 10.53273437 -4.4140625 9.7265625 C-4.42308594 8.71464844 -4.43210937 7.70273438 -4.44140625 6.66015625 C-4.45300781 5.65082031 -4.46460938 4.64148438 -4.4765625 3.6015625 C-4.32617643 -0.2543364 -3.97350921 0.11484131 0 0 Z " fill="#F0F0F0" transform="translate(511.37890625,144.90234375)"/>
<path d="M0 0 C5.61 0 11.22 0 17 0 C17 20.46 17 40.92 17 62 C11.39 62 5.78 62 0 62 C0 41.54 0 21.08 0 0 Z " fill="#E7E7E7" transform="translate(630,142)"/>
<path d="M0 0 C5.61 0 11.22 0 17 0 C17.33 0.99 17.66 1.98 18 3 C18.66 2.505 19.32 2.01 20 1.5 C23.96633241 -0.48316621 26.60303262 -0.22357461 31 0 C31 4.95 31 9.9 31 15 C27.6796875 15.63476562 27.6796875 15.63476562 24.359375 16.26953125 C21.57411725 17.13185443 20.09570054 17.95842396 18 20 C17.35596812 22.89377727 17.35596812 22.89377727 17.390625 26.19921875 C17.35839844 27.40771484 17.32617188 28.61621094 17.29296875 29.86132812 C17.27169922 31.7552832 17.27169922 31.7552832 17.25 33.6875 C17.20552734 35.59885742 17.20552734 35.59885742 17.16015625 37.54882812 C17.08936866 40.69887578 17.04243175 43.8494428 17 47 C11.39 47 5.78 47 0 47 C0 31.49 0 15.98 0 0 Z " fill="#EFEFEF" transform="translate(538,157)"/>
<path d="M0 0 C0.99 0 1.98 0 3 0 C3 76.23 3 152.46 3 231 C1.68 231 0.36 231 -1 231 C-1.0227901 201.71638319 -1.04049804 172.43276702 -1.05106533 143.14914316 C-1.0523161 139.69553879 -1.05361042 136.24193443 -1.05493164 132.78833008 C-1.05519395 132.10075099 -1.05545626 131.4131719 -1.05572652 130.70475709 C-1.06008327 119.55713832 -1.06797084 108.40952468 -1.0771528 97.26190896 C-1.08648921 85.83182861 -1.09198068 74.40175245 -1.09408849 62.97166818 C-1.09539604 56.54803777 -1.09848461 50.12441901 -1.10573006 43.70079231 C-1.11248627 37.66233707 -1.11461778 31.62389835 -1.11310768 25.58543968 C-1.11338419 23.36214229 -1.11539167 21.13884437 -1.11920547 18.91555023 C-1.12413649 15.89432741 -1.12300049 12.87316808 -1.12025452 9.85194397 C-1.12316736 8.9599387 -1.1260802 8.06793344 -1.12908131 7.14889771 C-1.11412121 1.11412121 -1.11412121 1.11412121 0 0 Z " fill="#9B9B9B" transform="translate(204,59)"/>
<path d="M0 0 C0.66 0.33 1.32 0.66 2 1 C1.236875 1.845625 0.47375 2.69125 -0.3125 3.5625 C-4.39046059 9.14652558 -4.94335475 16.32509461 -6 23 C-8.46800047 21.84826645 -10.04783565 20.95216435 -12 19 C-12 18.01 -12 17.02 -12 16 C-13.32 15.34 -14.64 14.68 -16 14 C-15.34 12.68 -14.68 11.36 -14 10 C-13.01 10 -12.02 10 -11 10 C-9.39588754 8.64594139 -9.39588754 8.64594139 -8 7 C-7.34 6.34 -6.68 5.68 -6 5 C-5.525625 4.319375 -5.05125 3.63875 -4.5625 2.9375 C-3 1 -3 1 0 0 Z " fill="#96DEB6" transform="translate(44,261)"/>
<path d="M0 0 C0.33 0 0.66 0 1 0 C1 18.81 1 37.62 1 57 C-3.77091551 55.63688128 -7.2030264 54.57924653 -11.4375 52.375 C-12.73494141 51.70597656 -12.73494141 51.70597656 -14.05859375 51.0234375 C-14.69925781 50.68570313 -15.33992187 50.34796875 -16 50 C-12.98968256 49.06576355 -12.13349732 48.95550089 -9 50 C-8.67 49.01 -8.34 48.02 -8 47 C-4 51.75 -4 51.75 -4 54 C-3.01 54 -2.02 54 -1 54 C-0.67 36.18 -0.34 18.36 0 0 Z " fill="#5A9174" transform="translate(165,227)"/>
<path d="M0 0 C-0.66666667 4 -1.33333333 8 -2 12 C-4.67456717 11.62207203 -5.80611814 11.20233084 -7.703125 9.22265625 C-8.21359375 8.50980469 -8.7240625 7.79695312 -9.25 7.0625 C-9.77078125 6.35222656 -10.2915625 5.64195312 -10.828125 4.91015625 C-12 3 -12 3 -12 1 C-7.67265609 -1.22923777 -4.71599818 -0.92470553 0 0 Z " fill="#9EF4C4" transform="translate(39,194)"/>
<path d="M0 0 C0.99 0 1.98 0 3 0 C3.33 0.66 3.66 1.32 4 2 C4.99 2.66 5.98 3.32 7 4 C3.14596162 6.45256988 -0.79437989 8.22921259 -5 10 C-6.0725 10.5775 -7.145 11.155 -8.25 11.75 C-11 13 -11 13 -14 12 C-14 11.34 -14 10.68 -14 10 C-11.36 9.67 -8.72 9.34 -6 9 C-5.67 8.01 -5.34 7.02 -5 6 C-3.35 5.67 -1.7 5.34 0 5 C-0.33 4.34 -0.66 3.68 -1 3 C-0.67 2.01 -0.34 1.02 0 0 Z " fill="#76AA8F" transform="translate(113,217)"/>
<path d="M0 0 C1.32 0.66 2.64 1.32 4 2 C3.19175781 2.32613281 2.38351563 2.65226563 1.55078125 2.98828125 C0.48214844 3.42527344 -0.58648437 3.86226562 -1.6875 4.3125 C-2.74324219 4.74175781 -3.79898438 5.17101562 -4.88671875 5.61328125 C-8.00562407 6.92618963 -8.00562407 6.92618963 -10.76953125 8.66796875 C-13 10 -13 10 -15 10 C-15 9.01 -15 8.02 -15 7 C-14.01 6.67 -13.02 6.34 -12 6 C-11.67 5.01 -11.34 4.02 -11 3 C-9.125 2.1875 -9.125 2.1875 -7 2 C-6.01 2.66 -5.02 3.32 -4 4 C-4 3.34 -4 2.68 -4 2 C-2.68 2 -1.36 2 0 2 C0 1.34 0 0.68 0 0 Z " fill="#74AF8F" transform="translate(74,240)"/>
<path d="M0 0 C4 4.75 4 4.75 4 7 C5.65 7.33 7.3 7.66 9 8 C9 8.66 9 9.32 9 10 C2.85326729 8.53012914 -2.42234327 5.94033413 -8 3 C-4.98968256 2.06576355 -4.13349732 1.95550089 -1 3 C-0.67 2.01 -0.34 1.02 0 0 Z " fill="#7BB192" transform="translate(157,274)"/>
<path d="M0 0 C0.33 0.66 0.66 1.32 1 2 C1.66 2.33 2.32 2.66 3 3 C2.48050781 3.25394531 1.96101563 3.50789062 1.42578125 3.76953125 C-2.48665708 5.70043889 -6.2958154 7.68488463 -10 10 C-10.33 8.68 -10.66 7.36 -11 6 C-10.360625 5.896875 -9.72125 5.79375 -9.0625 5.6875 C-8.381875 5.460625 -7.70125 5.23375 -7 5 C-6.67 4.01 -6.34 3.02 -6 2 C-4.35 2.33 -2.7 2.66 -1 3 C-0.67 2.01 -0.34 1.02 0 0 Z " fill="#7FBC98" transform="translate(65,167)"/>
<path d="M0 0 C0.33 0 0.66 0 1 0 C1 3.3 1 6.6 1 10 C1.66 10 2.32 10 3 10 C2.67 12.31 2.34 14.62 2 17 C2.99 17.33 3.98 17.66 5 18 C5.75 19.9375 5.75 19.9375 6 22 C5.67 22.66 5.34 23.32 5 24 C4.34 24 3.68 24 3 24 C0.07021267 15.99191463 -0.1371328 8.42604901 0 0 Z " fill="#74A88D" transform="translate(18,163)"/>
<path d="M0 0 C0.99 0.99 1.98 1.98 3 3 C-0.16952847 6.26008643 -3.39937989 9.22237877 -7 12 C-7.33 11.01 -7.66 10.02 -8 9 C-7.608125 8.62875 -7.21625 8.2575 -6.8125 7.875 C-4.3884581 5.36737045 -2.21512072 2.69406574 0 0 Z " fill="#82BE9C" transform="translate(154,118)"/>
<path d="M0 0 C0 0.66 0 1.32 0 2 C-0.66 2 -1.32 2 -2 2 C-2.2475 2.61875 -2.495 3.2375 -2.75 3.875 C-4.25755082 6.4378364 -5.20917138 7.04314447 -8 8 C-10.75 8.125 -10.75 8.125 -13 8 C-9.81692689 4.43495812 -5.03655764 0 0 0 Z " fill="#85BF9E" transform="translate(124,237)"/>
<path d="M0 0 C0 1.98 0 3.96 0 6 C-2.31 6.66 -4.62 7.32 -7 8 C-7.33 7.01 -7.66 6.02 -8 5 C-7.34 5 -6.68 5 -6 5 C-5.67 4.01 -5.34 3.02 -5 2 C-1.63157895 0 -1.63157895 0 0 0 Z " fill="#92E3B6" transform="translate(34,265)"/>
<path d="M0 0 C0.33 0.66 0.66 1.32 1 2 C0.01 2.33 -0.98 2.66 -2 3 C-2 2.34 -2 1.68 -2 1 C-1.34 0.67 -0.68 0.34 0 0 Z M-7 3 C-5.35 3 -3.7 3 -2 3 C-2 4.32 -2 5.64 -2 7 C-4.97 7 -7.94 7 -11 7 C-11.33 7.66 -11.66 8.32 -12 9 C-12.66 8.34 -13.32 7.68 -14 7 C-11.69 6.01 -9.38 5.02 -7 4 C-7 3.67 -7 3.34 -7 3 Z M-6 7 C-4 8 -4 8 -4 8 Z " fill="#A4F2C8" transform="translate(158,70)"/>
<path d="M0 0 C1.32 0 2.64 0 4 0 C4 0.66 4 1.32 4 2 C6.46326712 3.6446674 6.46326712 3.6446674 9 5 C8.67 6.65 8.34 8.3 8 10 C4.71211176 6.88983545 2.16264012 3.98381075 0 0 Z " fill="#7DB89B" transform="translate(27,196)"/>
<path d="M0 0 C1.54897985 3.0979597 0.83239539 6.26216552 0.5625 9.625 C0.51029297 10.33140625 0.45808594 11.0378125 0.40429688 11.765625 C0.27458793 13.51079987 0.13795046 15.25545725 0 17 C-0.33 17 -0.66 17 -1 17 C-1.103125 15.906875 -1.20625 14.81375 -1.3125 13.6875 C-1.68753577 9.74693588 -1.68753577 9.74693588 -5 7 C-3.35 4.69 -1.7 2.38 0 0 Z " fill="#A4F0C8" transform="translate(165,142)"/>
<path d="M0 0 C0.66 0.33 1.32 0.66 2 1 C0.50708815 4.80013925 -1.62377323 6.74918216 -5 9 C-6.32 9 -7.64 9 -9 9 C-7.83709195 5.51127585 -6.86032391 4.90023136 -3.9375 2.8125 C-3.20402344 2.28269531 -2.47054687 1.75289063 -1.71484375 1.20703125 C-1.14894531 0.80871094 -0.58304688 0.41039063 0 0 Z " fill="#81B69A" transform="translate(41,126)"/>
<path d="M0 0 C0.66 0.33 1.32 0.66 2 1 C2 1.66 2 2.32 2 3 C2.66 3 3.32 3 4 3 C5.625 5 5.625 5 7 7 C6.34 7 5.68 7 5 7 C5.33 8.32 5.66 9.64 6 11 C5.01 10.34 4.02 9.68 3 9 C3 8.01 3 7.02 3 6 C1.68 5.34 0.36 4.68 -1 4 C-0.67 2.68 -0.34 1.36 0 0 Z " fill="#7AB694" transform="translate(29,271)"/>
<path d="M0 0 C0.66 0.33 1.32 0.66 2 1 C1.49339844 1.68835938 1.49339844 1.68835938 0.9765625 2.390625 C-2.36308951 6.98192426 -2.36308951 6.98192426 -5 12 C-5 9 -5 6 -5 3 C-2.625 1.25 -2.625 1.25 0 0 Z " fill="#6DA483" transform="translate(44,261)"/>
<path d="M0 0 C0.75 1.75 0.75 1.75 1 4 C-0.9375 6.25 -0.9375 6.25 -3 8 C-4.32 6.35 -5.64 4.7 -7 3 C-4.69 2.01 -2.38 1.02 0 0 Z " fill="#8ED4AE" transform="translate(89,103)"/>
<path d="M0 0 C0 2.64 0 5.28 0 8 C-2 7 -2 7 -3 4 C-4.65 3.67 -6.3 3.34 -8 3 C-4.93882432 0.37613513 -4.26826873 0 0 0 Z " fill="#7EB79A" transform="translate(166,217)"/>
<path d="M0 0 C1 3 1 3 1 6 C1.66 5.67 2.32 5.34 3 5 C3 6.32 3 7.64 3 9 C2.34 9 1.68 9 1 9 C1 9.66 1 10.32 1 11 C-0.65 11 -2.3 11 -4 11 C-3.67 10.01 -3.34 9.02 -3 8 C-2.34 8 -1.68 8 -1 8 C-1.020625 7.05125 -1.04125 6.1025 -1.0625 5.125 C-1 2 -1 2 0 0 Z " fill="#619878" transform="translate(38,198)"/>
<path d="M0 0 C1.12377697 3.30435084 0.89554742 5.0506862 -0.4375 8.25 C-0.72496094 8.95640625 -1.01242188 9.6628125 -1.30859375 10.390625 C-1.53675781 10.92171875 -1.76492187 11.4528125 -2 12 C-2.66 12 -3.32 12 -4 12 C-4.33 12.66 -4.66 13.32 -5 14 C-4.34 11.03 -3.68 8.06 -3 5 C-2.34 5 -1.68 5 -1 5 C-0.67 3.35 -0.34 1.7 0 0 Z " fill="#69987C" transform="translate(25,218)"/>
<path d="M0 0 C0.99 0 1.98 0 3 0 C3.33 0.66 3.66 1.32 4 2 C4.99 2.66 5.98 3.32 7 4 C5.02 4.66 3.04 5.32 1 6 C0.34 5.01 -0.32 4.02 -1 3 C-0.67 2.01 -0.34 1.02 0 0 Z " fill="#87CBA4" transform="translate(113,217)"/>
<path d="M0 0 C0.99 0.33 1.98 0.66 3 1 C-2.14285714 6.57142857 -2.14285714 6.57142857 -6 7 C-6 6.01 -6 5.02 -6 4 C-3.5625 2.375 -3.5625 2.375 -1 1 C-0.67 0.67 -0.34 0.34 0 0 Z " fill="#7CAD91" transform="translate(150,200)"/>
<path d="M0 0 C1.32 0 2.64 0 4 0 C3.33333333 4 2.66666667 8 2 12 C1.34 11.67 0.68 11.34 0 11 C0.08378906 10.37351563 0.16757812 9.74703125 0.25390625 9.1015625 C0.35574219 8.28429687 0.45757812 7.46703125 0.5625 6.625 C0.66691406 5.81289062 0.77132812 5.00078125 0.87890625 4.1640625 C1.18237328 1.95100814 1.18237328 1.95100814 0 0 Z " fill="#ACF0CB" transform="translate(35,194)"/>
<path d="M0 0 C-1.875 3.875 -1.875 3.875 -3 5 C-5.33297433 5.04092937 -7.66705225 5.04241723 -10 5 C-9.01 4.34 -8.02 3.68 -7 3 C-6.34 2.46375 -5.68 1.9275 -5 1.375 C-3 0 -3 0 0 0 Z " fill="#7BAD90" transform="translate(108,94)"/>
<path d="M0 0 C1 3 1 3 0.0625 5.1875 C-0.4634375 6.0846875 -0.4634375 6.0846875 -1 7 C-3.97 6.505 -3.97 6.505 -7 6 C-6.01 4.68 -5.02 3.36 -4 2 C-4 2.66 -4 3.32 -4 4 C-3.34 4 -2.68 4 -2 4 C-2 3.34 -2 2.68 -2 2 C-1.34 2 -0.68 2 0 2 C0 1.34 0 0.68 0 0 Z " fill="#92DEB1" transform="translate(30,141)"/>
<path d="M0 0 C0.66 0.33 1.32 0.66 2 1 C1.67 2.65 1.34 4.3 1 6 C-1.475 5.01 -1.475 5.01 -4 4 C-3 2 -3 2 0 0 Z " fill="#A1F5C6" transform="translate(70,162)"/>
<path d="M0 0 C1.32 0.66 2.64 1.32 4 2 C1.03 3.32 -1.94 4.64 -5 6 C-5 5.01 -5 4.02 -5 3 C-4.360625 2.690625 -3.72125 2.38125 -3.0625 2.0625 C-1.06389179 1.1654837 -1.06389179 1.1654837 0 0 Z " fill="#619275" transform="translate(120,141)"/>
<path d="M0 0 C0.99 0.33 1.98 0.66 3 1 C3.75 2.9375 3.75 2.9375 4 5 C3.67 5.66 3.34 6.32 3 7 C2.34 7 1.68 7 1 7 C0.67 4.69 0.34 2.38 0 0 Z " fill="#7AB093" transform="translate(20,180)"/>
<path d="M0 0 C0.99 0.33 1.98 0.66 3 1 C2.34 1 1.68 1 1 1 C1 1.99 1 2.98 1 4 C-0.875 4.625 -0.875 4.625 -3 5 C-3.66 4.34 -4.32 3.68 -5 3 C-2.6875 1.4375 -2.6875 1.4375 0 0 Z " fill="#659679" transform="translate(144,151)"/>
<path d="M0 0 C0.66 0.33 1.32 0.66 2 1 C2.625 3.0625 2.625 3.0625 3 5 C1.68 5.33 0.36 5.66 -1 6 C-1.66 4.68 -2.32 3.36 -3 2 C-2.01 2 -1.02 2 0 2 C0 1.34 0 0.68 0 0 Z " fill="#97E5B9" transform="translate(82,233)"/>
<path d="M0 0 C0 0.66 0 1.32 0 2 C-4.15267176 5.11450382 -4.15267176 5.11450382 -7.3125 4.6875 C-7.869375 4.460625 -8.42625 4.23375 -9 4 C-2.25 0 -2.25 0 0 0 Z " fill="#608A73" transform="translate(132,158)"/>
<path d="M0 0 C2.97 0.495 2.97 0.495 6 1 C3.37801226 3.15377564 1.35595828 4.40072174 -2 5 C-1.34 3.35 -0.68 1.7 0 0 Z " fill="#639A7A" transform="translate(94,153)"/>
<path d="M0 0 C0.66 0.33 1.32 0.66 2 1 C0.68 2.32 -0.64 3.64 -2 5 C-3.32 4.34 -4.64 3.68 -6 3 C-4.03533587 1.93224776 -2.03144641 0.93446535 0 0 Z " fill="#76A98D" transform="translate(163,142)"/>
<path d="M0 0 C0.66 0.33 1.32 0.66 2 1 C0.35 2.32 -1.3 3.64 -3 5 C-4.32 4.34 -5.64 3.68 -7 3 C-4.69631264 1.93347808 -2.35981813 0.93578995 0 0 Z " fill="#75A88E" transform="translate(115,90)"/>
</svg>
